<?xml version="1.0" encoding="UTF-8"?>
<svg width="599px" height="509px" viewBox="0 0 599 509" version="1.1" xmlns="http://www.w3.org/2000/svg" xmlns:xlink="http://www.w3.org/1999/xlink">
    <!-- Generator: Sketch 51.2 (57519) - http://www.bohemiancoding.com/sketch -->
    <title>lyric</title>
    <desc>Created with Sketch.</desc>
    <defs></defs>
    <g id="lyric" stroke="none" stroke-width="1" fill="none" fill-rule="evenodd">
        <rect fill="#FFFFFF" x="0" y="0" width="599" height="509"></rect>
        <text id="Type-something" font-family="Helvetica" font-size="14" font-weight="normal" fill="#000000">
            <tspan x="55" y="104">Type something</tspan>
        </text>
        <path d="M458.401079,28.772776 C457.503772,28.9228296 456.606464,29.3515541 455.944166,29.908896 L455.474148,30.3161844 C456.050988,30.6377278 456.435549,30.8092176 457.097847,30.9592712 C457.396949,31.0235798 457.760145,31.130761 458.016519,31.1521972 C458.059248,30.3376206 458.208799,29.5230439 458.401079,28.772776 Z M463.165354,38.3118971 L463.870381,38.4405145 L464.554044,37.8831726 C465.664996,36.9614148 465.921369,35.8681672 465.942734,34.4105038 C466.006827,31.3879957 462.951709,28.6227224 459.853862,28.6227224 C459.618853,28.6227224 459.1702,28.6655949 458.956555,28.6870311 L458.956555,31.1950697 C459.191564,31.1950697 459.490666,31.1521972 459.74704,31.130761 L458.956555,31.3451233 C458.956555,32.2025723 458.956555,32.738478 458.93519,33.5530547 C458.913826,35.2679528 459.084742,36.3826367 458.913826,37.8831726 C460.387974,37.926045 461.584384,38.0332262 463.165354,38.3118971 Z M457.952425,33.4244373 C457.952425,32.8242229 457.952425,32.1596999 457.995154,31.602358 C457.439678,31.7309753 456.862838,31.8381565 456.328726,31.8381565 C455.58097,31.8381565 455.132316,31.7309753 454.405925,31.5380493 L454,31.4308682 L454.683663,30.7877814 C455.944166,29.6087889 457.16194,28.5369775 458.593359,28.0868167 C458.74291,27.5294748 458.892462,27.1221865 459.148835,26.6291533 L459.597489,25.750268 L459.319751,26.7148982 C459.191564,27.1436227 459.084742,27.5723473 459.020648,27.9367631 C459.533395,27.7652733 460.238423,27.6795284 460.879356,27.6795284 C464.340399,27.6580922 467.566433,30.5305466 467.587797,33.5101822 C467.609162,36.039657 465.835911,37.2400857 463.849016,38.8263666 L462.887616,39.5980707 L462.161224,39.4694534 C460.879356,39.2336549 459.832498,39.1264737 458.74291,39.0621651 C458.614724,39.7266881 458.486537,40.3483387 458.080612,40.9056806 L457.525136,41.6773848 L458.059248,40.4983923 C458.230163,40.1125402 458.294257,39.8338692 458.315621,39.4051447 C458.315621,39.3193998 458.315621,39.1050375 458.336986,39.0407288 C458.16607,39.0407288 457.952425,38.9978564 457.78151,38.9978564 C456.5851,38.9335477 455.538241,39.3622722 455.046859,40.4769561 L454.897307,40.8199357 L454.790485,40.8199357 L454.940036,40.3483387 C455.410054,38.8906752 457.076482,38.0546624 458.315621,37.8831726 C458.230163,36.4255091 457.952425,35.1393355 457.952425,33.4244373 Z M472.458894,32.266881 C472.43753,31.1093248 472.950277,30.1232583 473.762126,29.1800643 C474.467154,28.3654877 475.514012,28.0653805 476.090853,27.5723473 C476.496777,27.2293676 476.817244,27.1007503 477.116347,26.6720257 L477.265898,26.4576635 L477.394085,26.8006431 C477.629094,27.4437299 478.996419,28.2368703 479.637353,28.1511254 C479.872362,28.1296892 480.021913,28.0868167 480.214194,27.9367631 L480.705576,27.550911 L480.76967,27.6795284 L479.936456,28.2583065 C479.274157,28.7299035 478.633223,28.965702 477.949561,29.0300107 C477.329991,29.0728832 476.774515,28.7299035 476.133582,28.2368703 L475.941301,28.0868167 L475.663563,28.3654877 C475.043994,28.9871383 474.702163,29.1586281 473.933042,29.7802787 C473.228015,30.380493 472.715268,31.2379421 472.587081,32.266881 L477.479543,32.266881 C477.757281,32.266881 477.928196,32.2025723 478.205934,32.1811361 C478.526401,32.1382637 478.675952,32.1382637 478.996419,32.073955 L477.629094,34.0032154 L477.735916,33.5959271 C477.757281,33.4458735 477.757281,33.3601286 477.671823,33.2529475 C477.543636,33.017149 477.308627,33.0814577 477.073618,33.0814577 L471.988876,33.0814577 C473.334837,36.1468382 477.970925,38.2690247 479.017784,38.1189711 C479.252793,38.0760986 479.38098,38.0546624 479.57326,37.8831726 L479.95782,37.5616292 L480.064642,37.6902465 L478.483672,38.869239 C478.18457,39.1050375 477.928196,39.4051447 477.735916,39.4051447 C476.945431,39.4051447 471.347942,37.6045016 470.493364,33.0814577 L469.510599,33.0814577 L470.42927,32.5241158 C470.407906,32.4169346 470.386542,32.2240086 470.386542,32.1382637 C470.343813,30.0589496 472.074334,28.2583065 474.296238,27.4222937 C472.736632,28.3654877 471.647045,29.3515541 471.604316,31.1736334 C471.604316,31.4951768 471.647045,31.9667738 471.711138,32.266881 L472.458894,32.266881 Z M484.743459,32.266881 C484.722095,31.1093248 485.234842,30.1232583 486.046691,29.1800643 C486.751719,28.3654877 487.798577,28.0653805 488.375418,27.5723473 C488.781342,27.2293676 489.101809,27.1007503 489.400912,26.6720257 L489.550463,26.4576635 L489.67865,26.8006431 C489.913659,27.4437299 491.280984,28.2368703 491.921918,28.1511254 C492.156927,28.1296892 492.306478,28.0868167 492.498759,27.9367631 L492.990141,27.550911 L493.054235,27.6795284 L492.221021,28.2583065 C491.558722,28.7299035 490.917788,28.965702 490.234126,29.0300107 C489.614556,29.0728832 489.05908,28.7299035 488.418147,28.2368703 L488.225866,28.0868167 L487.948128,28.3654877 C487.328559,28.9871383 486.986728,29.1586281 486.217607,29.7802787 C485.51258,30.380493 484.999833,31.2379421 484.871646,32.266881 L489.764108,32.266881 C490.041846,32.266881 490.212761,32.2025723 490.490499,32.1811361 C490.810966,32.1382637 490.960517,32.1382637 491.280984,32.073955 L489.913659,34.0032154 L490.020481,33.5959271 C490.041846,33.4458735 490.041846,33.3601286 489.956388,33.2529475 C489.828201,33.017149 489.593192,33.0814577 489.358183,33.0814577 L484.273441,33.0814577 C485.619402,36.1468382 490.25549,38.2690247 491.302349,38.1189711 C491.537358,38.0760986 491.665545,38.0546624 491.857825,37.8831726 L492.242385,37.5616292 L492.349207,37.6902465 L490.768237,38.869239 C490.469135,39.1050375 490.212761,39.4051447 490.020481,39.4051447 C489.229996,39.4051447 483.632507,37.6045016 482.777929,33.0814577 L481.795164,33.0814577 L482.713835,32.5241158 C482.692471,32.4169346 482.671107,32.2240086 482.671107,32.1382637 C482.628378,30.0589496 484.358899,28.2583065 486.580803,27.4222937 C485.021197,28.3654877 483.93161,29.3515541 483.888881,31.1736334 C483.888881,31.4951768 483.93161,31.9667738 483.995703,32.266881 L484.743459,32.266881 Z M500.446338,32.9099678 C500.724076,32.6527331 500.873627,32.4812433 501.087272,32.1811361 C501.300916,31.8810289 501.407739,31.6881029 501.535926,31.3451233 C501.74957,31.6237942 501.899121,31.795284 502.176859,31.9882101 C502.454597,32.2025723 502.646878,32.2883173 502.94598,32.3954984 C502.689606,32.6312969 502.540055,32.8027867 502.326411,33.0814577 C502.13413,33.3386924 502.048673,33.4673098 501.899121,33.7674169 C501.664112,33.5101822 501.450468,33.3601286 501.130001,33.1886388 C500.873627,33.0385852 500.724076,32.9742765 500.446338,32.9099678 Z M500.659983,38.397642 C499.997684,38.1618435 499.292657,38.0117899 498.737181,37.926045 C498.694452,38.7834941 498.566265,39.7695606 498.331256,40.7984995 C498.074883,42.0203644 497.882603,42.7491961 497.412585,43.9281886 L496.985295,45 L496.81438,44.9142551 L497.049389,44.1854234 C497.220304,43.6923901 497.263033,43.392283 497.369856,42.8778135 C497.540771,41.9131833 497.668958,41.3558414 497.647594,40.3697749 L497.5835,37.8617363 C495.788886,37.7116827 494.955672,38.0760986 493.930177,38.8906752 L493.524253,39.2122186 L493.481524,38.9764202 L493.84472,38.6548767 C494.977036,37.6688103 496.00253,37.1114684 497.562136,36.8971061 L497.498042,34.6034298 C497.433949,32.6527331 497.39122,30.3376206 497.00666,29.6302251 C496.493913,28.7299035 495.511148,27.9796356 494.912943,27.9796356 C494.699298,27.9796356 494.571111,28.0439443 494.400196,28.1939979 L494.037,28.494105 L493.930177,28.3440514 L495.062494,27.4222937 C495.468419,27.079314 495.874343,26.7148982 496.216175,26.693462 C496.707557,26.6505895 498.758546,27.7867095 498.758546,29.9946409 L498.758546,36.8327974 C500.659983,36.789925 502.155495,37.1972133 503.415998,37.8831726 C504.932875,36.5755627 505.274706,34.8821008 505.317435,33.1028939 C505.381529,30.7877814 503.223718,29.2015005 501.36501,28.3226152 L500.638618,27.9796356 L500.318151,28.3654877 C499.249928,29.6516613 499.079013,30.8306538 499.143106,32.5241158 C499.16447,33.3386924 499.271293,33.8531618 499.549031,34.624866 L499.719946,35.096463 L499.549031,35.2893891 L499.356751,34.7749196 C499.036284,33.9389068 498.97219,33.3815648 498.950826,32.5026795 C498.865368,30.0375134 499.549031,28.3226152 501.258188,26.5434084 C502.689606,26.693462 506.385658,28.6227224 506.72749,31.9024652 C507.005228,34.5605573 505.958369,36.5969989 503.736465,38.0332262 L502.283682,38.9764202 L500.659983,38.397642 Z M518.05487,33.345158 C518.052108,33.3973476 518.050654,33.4520627 518.050654,33.5101822 C518.054,33.4598235 518.054726,33.4110422 518.052585,33.363756 L518.05487,33.345158 Z M518.052585,33.363756 C518.041058,33.1091165 517.946408,32.8978316 517.730187,32.7170418 C517.495178,32.5241158 517.238804,32.5241158 516.918337,32.545552 L515.166452,32.6098607 L515.145087,37.4758842 L513.094099,40.3483387 L512.410436,40.2625938 C511.684044,40.1768489 511.235391,40.0267953 510.530364,40.2625938 C509.568963,40.5841372 508.992122,41.1629153 508.671656,42.1489818 C508.949393,40.8842444 509.462141,40.1339764 510.530364,39.4480171 C511.449035,38.869239 512.154063,38.8049303 513.222286,38.8049303 L513.905948,38.8049303 L513.86322,32.6741693 C513.86322,32.6741693 511.940418,32.7170418 511.769502,32.8242229 C511.534493,32.9099678 511.363578,33.0385852 511.171297,33.2529475 L510.701279,33.8102894 L510.573093,33.8102894 L511.598587,32.4169346 C511.833596,32.1168274 512.132698,31.795284 512.367707,31.7095391 C512.837725,31.5594855 513.43593,31.4951768 513.841855,31.4737406 C513.86322,30.9807074 513.820491,28.2797428 513.820491,28.2797428 L516.320133,25.4072883 L516.597871,25.8574491 C516.896973,26.3504823 517.281533,26.5434084 517.815645,26.693462 C518.349756,26.8220793 518.734317,26.7363344 519.247064,26.5434084 L520.1871,26.1789925 L518.285663,27.2936763 C517.772916,27.5937835 517.366991,27.8938907 516.875608,27.9153269 C516.320133,27.9367631 515.615105,27.7438371 515.145087,27.1864952 L515.145087,31.4951768 C515.44419,31.5166131 516.063759,31.5166131 516.40559,31.4951768 C517.153346,31.4523044 517.580636,31.5594855 518.285663,31.3879957 L518.819774,31.2593783 C518.477943,31.6881029 518.349756,32.0096463 518.200205,32.545552 C518.127619,32.8368698 518.070447,33.0508634 518.05487,33.345158 L518.052585,33.363756 Z M523.391769,37.8831726 L523.626778,37.8831726 C525.506851,37.8831726 526.660532,38.4619507 528.049222,38.4619507 C528.818342,38.4619507 528.861071,38.204716 529.331089,37.9474812 L529.437912,38.0975348 C528.476511,38.9764202 527.728755,39.5980707 526.404158,39.619507 C524.994104,39.6409432 524.246348,39.2765273 522.836293,39.1907824 C521.832163,39.1264737 521.725341,39.4694534 521.127136,39.812433 L521.020314,39.6838156 L521.832163,38.7406217 C522.238088,38.2690247 522.57992,38.0117899 523.135396,37.9046088 C523.220853,37.6473741 523.199489,37.8188639 523.242218,37.5401929 C523.434498,36.1682744 523.306311,34.0246517 523.284947,33.8531618 C523.220853,33.3815648 522.985844,33.0814577 522.57992,32.8885316 C522.216724,32.6956056 521.938986,32.6741693 521.554425,32.8027867 L521.468968,32.6527331 L523.092667,31.6452304 L522.96448,29.0514469 C523.028573,28.9013934 522.985844,28.3654877 522.686742,28.3440514 C522.409004,28.3226152 522.323546,28.4083601 522.109901,28.5369775 L521.896257,28.6655949 L521.789435,28.4726688 C522.665377,28.0653805 523.178124,27.7652733 523.925881,27.1436227 C524.54545,26.6505895 524.844552,26.3290461 525.357299,25.7073955 L526.169149,26.6291533 C526.681896,27.2293676 527.13055,27.6580922 527.066456,28.4512326 C527.002363,29.2872454 526.51098,30.4448017 525.870047,31.5809218 L525.442757,32.3311897 L525.335935,32.2454448 L525.720495,31.5380493 C525.805953,31.3665595 525.827318,31.2593783 525.891411,31.0878885 C526.105056,30.4876742 526.040962,30.3590568 525.998233,29.7374062 C525.955504,29.1586281 525.805953,28.8156484 525.400028,28.4083601 L524.289076,27.2722401 L524.289076,33.7245445 C524.289076,34.4962487 524.224983,34.9892819 524.075432,35.7395498 C523.861787,36.789925 523.819058,36.8971061 523.391769,37.8831726 Z M535.184952,28.5584137 C535.46269,28.1511254 535.569512,27.9153269 535.740427,27.4651661 L536.595006,27.4222937 C537.727322,27.357985 538.43235,27.550911 539.372386,28.2368703 C542.021579,30.187567 541.829299,33.4244373 540.461973,36.0182208 C539.863768,37.1329046 539.158741,37.4973205 538.410985,38.5262594 L537.641865,39.5766345 L535.22768,39.4480171 C532.450301,39.2979636 530.10021,37.4973205 529.801107,34.7749196 C529.630192,33.1028939 530.057481,32.1382637 530.442041,30.5305466 L530.612957,29.8017149 L533.240786,28.0653805 C533.198057,27.7438371 533.133963,27.357985 533.091234,27.0150054 L533.83899,25 C533.881719,25.9860665 533.881719,26.8220793 533.903084,27.5937835 L534.138093,27.4651661 L534.373102,27.7438371 L533.924448,28.0439443 C533.924448,28.5584137 533.945813,29.244373 533.945813,29.8660236 C534.415831,29.4587353 534.84312,29.0943194 535.184952,28.5584137 Z M537.556407,38.0332262 C539.116012,38.1404073 540.056049,35.4823151 539.970591,33.5101822 C539.863768,31.2165059 538.688723,29.0514469 536.274539,28.9228296 C535.889979,28.9013934 535.078129,29.2229368 534.45856,29.7588424 L533.945813,30.187567 C533.945813,33.1243301 533.967177,34.4533762 533.83899,37.454448 C535.0354,37.9046088 536.509548,37.9474812 537.556407,38.0332262 Z M533.411701,37.2400857 C533.582617,35.5466238 533.582617,35.0107181 533.582617,33.3172562 C533.582617,32.3097535 533.561252,31.3665595 533.518524,30.5734191 L532.535758,31.3879957 L532.087105,31.5380493 L533.497159,30.2733119 C533.497159,30.2733119 533.390337,29.0728832 533.304879,28.4726688 L532.770767,28.8370847 C532.386207,29.0943194 531.894825,29.8017149 531.68118,30.5734191 C531.125704,32.6312969 530.933424,34.153269 532.044376,35.9753483 C532.364843,36.511254 532.856225,36.982851 533.411701,37.2400857 Z M549.563234,38.5691318 C549.819607,38.6120043 550.845101,37.7759914 551.31512,36.9614148 C551.293755,36.8542337 551.272391,36.7470525 551.272391,36.6613076 L551.208297,30.0589496 C551.208297,29.8017149 551.272391,29.5659164 551.058746,29.4158628 C550.50327,28.965702 549.670056,28.4512326 549.328225,28.4083601 C549.178673,28.3869239 549.11458,28.4726688 548.965029,28.5584137 L548.836842,28.4726688 L550.50327,27.1007503 L552.041511,27.9796356 C552.191062,28.0653805 552.27652,28.1296892 552.383343,28.2797428 C552.532894,28.5369775 552.490165,28.7513398 552.490165,29.0514469 L552.532894,35.3322615 C552.532894,35.6538049 552.511529,35.8681672 552.725174,36.1254019 C553.558388,37.1329046 555.523918,38.0332262 556.998066,38.2904609 C557.532178,38.3762058 559.732717,36.0182208 559.561801,33.6173633 C559.369521,31.1521972 557.852645,28.4726688 555.609376,28.2797428 C554.840256,28.2154341 554.412966,28.5155413 553.729304,29.0300107 L553.47293,29.2229368 L553.366108,29.0728832 L553.643846,28.8585209 C554.690704,28.0653805 555.43846,27.2079314 556.549412,27.2079314 C558.664494,27.2079314 560.886398,29.71597 560.99322,32.3526259 C561.142772,36.1468382 558.792681,37.2400857 556.463955,39.2122186 L555.780292,39.7909968 L555.096629,39.4265809 C553.814761,38.7406217 552.810632,38.5262594 551.763773,37.6688103 C551.678315,37.5830654 551.550129,37.4330118 551.464671,37.3687031 L548.965029,39.5551983 C548.772749,39.7052519 548.687291,39.9196141 548.516375,39.8981779 C547.811348,39.8338692 546.401293,39.340836 545.098061,38.7620579 C544.585314,38.5262594 544.307576,38.397642 543.816194,38.1189711 C544.136661,37.8831726 544.307576,37.733119 544.585314,37.4758842 C545.995369,36.0825295 546.508116,34.6463023 546.422658,32.6956056 C546.315836,30.6377278 545.098061,28.2154341 543.538456,28.0439443 C542.342046,27.8938907 541.936121,28.5369775 541.231094,29.2872454 L540.78244,29.7588424 L540.739711,29.437299 L541.273823,28.8370847 C542.36341,27.5937835 543.324811,26.8006431 545.098061,27.079314 C546.273107,27.2722401 547.319965,28.8370847 547.597703,30.0803859 C548.11045,32.3311897 547.469517,33.8745981 546.914041,34.8392283 C545.931275,36.5541265 545.696266,36.7684887 545.375799,37.1114684 L545.845818,37.3472669 C547.213143,38.0332262 548.665926,38.4190782 549.563234,38.5691318 Z" id="DEEPFLOW" fill="#0C00FF"></path>
        <text id="@MC_Turing-#deepflow" font-family="Helvetica" font-size="12" font-weight="normal" line-spacing="18" fill="#000AFF">
            <tspan x="55" y="402">@MC_Turing </tspan>
            <tspan x="55" y="420">#deepflow </tspan>
            <tspan x="55" y="438">#LLScience </tspan>
            <tspan x="55" y="456">#LL18</tspan>
        </text>
    </g>
</svg>